<svg enable-background="new 0 0 470 470" height="470" viewBox="0 0 470 470" width="470" xmlns="http://www.w3.org/2000/svg"><path d="m258.7 362.3c-5.8 3.2-13.4 6.4-20.2 6.4-7 0-14.4.6-21.1-1.3-4.2-1.3-8-2.9-11.8-5.4 4.8-.6 10.2-1 14.4-3.2.3 0 .3.3 0 0 0-.3.3-.3 0 0-4.8.6-10.9 1.3-15.7 1.3-1.9 0-3.5-.3-5.4-.6-2.9-.3-4.2-2.6-5.1-5.1-2.9-7.4-2.6-14.7 1.9-21.4 4.2-5.8 7-12.2 8.6-19.2 0-.6.3-1 .3-1.6 0 0 0-.3-.3-.6-1.3 2.2-2.6 4.5-3.8 6.4-1 1.6-1.9 4.2-3.2 3.8-1.6-.3-1-2.9-1.3-4.5-1.3-9-2.2-18.2-3.8-27.2-1.3-7.4-4.5-13.8-9.3-19.5-2.2-2.9-3.2-6.1-2.6-9.6.6-3.8 1.6-7.7 2.2-11.8-1.3 2.2-2.2 4.2-3.2 5.8-5.8 8.6-14.1 12.5-24.3 12.2s-19.2-4.5-27.5-10.2c-3.2-2.2-3.5-3.5-1.9-7 4.2-8 10.6-13.4 18.6-17 8.6-3.8 17.9-4.2 27.2-1.6 1 .3 2.2.6 3.5.6 2.2.3 3.5-1.3 2.9-3.5-.6-2.6-2.9-4.2-5.4-4.8-14.4-3.5-26.2-11.5-37.4-20.8-20.8-17.3-35.8-39-46.4-64-4.5-10.9-8.3-22.1-11.2-33.6-.3-1.3-1-3.2.3-3.8s2.6 1 3.5 2.2c6.4 6.7 11.8 14.4 17.9 21.4 12.2 14.7 25.6 28.1 40.9 39.7 15 11.5 31.7 19.8 50.2 24.3 6.7 1.6 13.1 3.5 19.8 4.8 1.6.3 3.2 0 4.8-.6 5.4-2.9 11.2-4.2 17.3-4.5 5.4-.3 11.2-.3 15.7 3.2 3.2 2.6 6.7 2.6 10.2 1.9 15.4-3.5 30.7-7 45.1-13.4 15.4-7 28.8-17 41.3-28.1 14.7-13.1 27.5-28.1 40-43.2 1.9-2.2 3.5-4.5 5.8-6.1.6-.6 1.3-1.3 2.2-1 1 .6.6 1.6.3 2.2-.6 4.5-2.2 8.6-3.5 13.1-5.4 17-12.5 33.3-22.1 48.3-13.8 21.4-31 39-53.7 51.2-5.8 3.2-11.5 5.8-17.9 7-2.6.6-4.5 1.6-5.8 3.8-.6 1.3-1 2.6-.3 3.5 1 1.3 2.2 1.3 3.5 1 2.9-.6 5.8-1.3 8.6-1.9 15.7-2.6 32.9 5.1 40.3 18.6.3.6.6 1.3 1 1.9 1.3 2.9 1 3.8-1.6 5.8-9.9 7-20.8 11.5-33.3 10.6-9.6-1-16.6-5.4-21.8-14.1-.3-.6-.6-1.6-1.6-1.9-.3 1.9.3 3.5.6 5.4.3 2.2 1 4.2 1.3 6.4.3 2.9-.3 5.4-2.2 7.4-6.7 7.4-9.9 16.3-11.2 25.9-1 8-2.2 16.3-3.5 24.3 0 .6 0 1.6-.6 1.9-1 .3-1.3-1-1.6-1.3-2.2-2.6-3.8-5.4-5.4-8.6-.3-.6-.6-1.6-1.3-1.9.6 2.9 1.6 5.8 2.2 9 1.3 4.5 3.8 8.6 6.4 12.5 2.9 4.2 5.1 9 4.8 14.1 0 3.2-1 6.4-2.2 9.3-1.3 2.9-3.2 4.2-6.4 4.5-6.7.6-13.1 0-19.8-1-1 0-1.9-.3-2.9-.3 1.3 1 2.9 1.3 4.2 1.6 1.6.3 3.2.6 4.8 1m-98.2-97.9c6.7-.3 12.8-1.3 17.9-5.1 4.5-3.5 6.7-8.3 6.7-14.1 0-.6 0-1.6-1-1.9-.6-.3-1 .3-1.6.6-5.1 5.1-11.5 6.7-18.2 6.7-1.6 0-3.2.3-4.8 1-3.5 1.6-3.5 1.6-3.2-2.6.3-1.9-1-3.2-2.9-2.9-.6 0-1.6.3-2.2 1-1.3.6-1.9.6-2.2-1-.6-2.6-1.6-2.9-3.8-1.9-4.2 1.6-7 4.5-9.6 8-1 1.3-1 2.6.6 3.5 7.7 5.5 15.7 8.4 24.3 8.7zm159.6-1c7.4-.3 14.7-2.6 21.4-6.4 1.3-.6 1.9-1.6 1.3-2.9-1.9-4.2-4.8-7.4-9-9.3-1.6-.6-2.6 0-3.2 1.3-.6 2.2-1.6 2.2-2.9 1-1-1-2.2-1-3.5-.3-1.3.6-1 1.9-1 2.9v1.3c0 .6.3 1.3-.3 1.6s-1 0-1.6-.3c-1.6-1-3.2-1.9-5.1-2.2-6.7-.3-13.1-2.2-17.3-8-1-1-1.6-1-1.9.3-.3.6-.3 1.3-.3 2.2-.3 7 2.6 12.2 9 15.7 4.2 1.9 8.7 2.8 14.4 3.1zm-109.7 12.5c2.2 0 4.5-.3 6.7-1.3 1-.3 2.2-.6 2.2-1.9 0-1-1.3-1.3-2.2-1.6-7.7-2.9-13.8-7.4-19.5-13.1-.6-.6-1.3-1.6-2.2-1.3-1 .3-1 1.6-1 2.2-.3 7.4 4.5 17 16 17zm62.1 0c.6 0 1.3 0 2.2-.3 7.7-1 14.1-8.6 13.4-16.3 0-1 0-1.9-1-2.6-1-.3-1.6.6-1.9 1-5.8 6.1-12.5 10.6-20.2 13.4-.6.3-1.6.6-1.6 1.3s.6 1.3 1.6 1.6c2 1.3 4.6 1.9 7.5 1.9zm-8.4 61.4c-4.8 0-9.6 3.5-10.6 7.7 0 .3-.3 1 0 1.6.6.3 1 0 1.3-.3 1.3-.6 2.2-1.3 3.5-1.9 1.6-1 2.6-.6 3.8.6 1.9 1.9 4.5 2.9 7.4 2.9 3.2 0 4.5-1.9 3.2-4.8-1.5-3.9-4.4-5.8-8.6-5.8zm-51.5 0c-2.6 0-5.4 1.9-7.4 5.8-1.3 2.6 0 4.5 2.9 4.5 2.2 0 4.5 0 5.8-1.6 2.9-3.2 5.8-2.2 8.6-.3l.3.3c.6 0 1 1 1.6.3.3-.3 0-1 0-1.6-.9-4.2-5.4-7.4-11.8-7.4z" fill="#bc1e2f"/><path d="m451.5 470 .5-.5s0 0 0-.5c-.5.5-.5.5-.5 1z" fill="#0a080a"/></svg>